<svg width="136" height="40" viewBox="0 0 136 40" fill="none" xmlns="http://www.w3.org/2000/svg">
<path fill-rule="evenodd" clip-rule="evenodd" d="M0.12616 12.5935V12.6921L23.0191 23.2798L45.9927 12.6561V12.6295L23.0191 2.0062L0.12616 12.5935ZM8.3794 12.6431L23.0196 5.87246L37.6611 12.6431L23.0191 19.4131L8.3794 12.6431ZM23.0191 27.3921L0.12616 16.9629V20.8203L23.0191 31.2734L45.9927 20.7848V16.927L23.0191 27.3921ZM23.0191 35.2154L0.12616 24.7853V28.6427L23.0191 39.0971L45.9927 28.6072V24.7497L23.0191 35.2154Z" fill="white"/>
<path fill-rule="evenodd" clip-rule="evenodd" d="M130.322 20.1699C130.322 19.2754 130.165 18.4413 129.851 17.6677C129.537 16.8941 129.108 16.2172 128.564 15.637C128.02 15.0568 127.386 14.6035 126.661 14.2772C125.936 13.9508 125.163 13.7876 124.341 13.7876C123.52 13.7876 122.746 13.9508 122.022 14.2772C121.297 14.6035 120.662 15.0568 120.119 15.637C119.575 16.2172 119.146 16.8941 118.832 17.6677C118.518 18.4413 118.361 19.2754 118.361 20.1699C118.361 21.0644 118.518 21.8984 118.832 22.672C119.146 23.4456 119.575 24.1226 120.119 24.7027C120.662 25.283 121.297 25.7362 122.022 26.0626C122.746 26.389 123.52 26.5522 124.341 26.5522C125.163 26.5522 125.936 26.389 126.661 26.0626C127.386 25.7362 128.02 25.283 128.564 24.7027C129.108 24.1226 129.537 23.4456 129.851 22.672C130.165 21.8984 130.322 21.0644 130.322 20.1699ZM135.542 20.1699C135.542 21.7413 135.252 23.1979 134.672 24.5395C134.092 25.8813 133.294 27.0417 132.279 28.0208C131.264 28.9999 130.074 29.7735 128.709 30.3416C127.344 30.9097 125.888 31.1938 124.341 31.1938C122.795 31.1938 121.345 30.9097 119.992 30.3416C118.638 29.7735 117.454 28.9939 116.44 28.0027C115.425 27.0115 114.627 25.845 114.047 24.5033C113.467 23.1616 113.177 21.7171 113.177 20.1699C113.177 18.6469 113.473 17.2145 114.065 15.8727C114.657 14.531 115.461 13.3585 116.476 12.3552C117.491 11.3519 118.675 10.5663 120.028 9.99812C121.381 9.43002 122.819 9.14595 124.341 9.14595C125.888 9.14595 127.344 9.43002 128.709 9.99812C130.074 10.5663 131.264 11.3398 132.279 12.319C133.294 13.2981 134.092 14.4645 134.672 15.8183C135.252 17.1722 135.542 18.6227 135.542 20.1699ZM111.365 30.5411C110.954 30.7345 110.489 30.8917 109.97 31.0125C109.45 31.1334 108.912 31.1938 108.357 31.1938C107.583 31.1938 106.84 31.0911 106.127 30.8856C105.415 30.6801 104.792 30.3477 104.261 29.8884C103.729 29.4291 103.306 28.8307 102.992 28.0933C102.678 27.356 102.521 26.4675 102.521 25.428V0.551651H107.849V24.5215C107.849 25.3917 108.024 25.9901 108.375 26.3165C108.725 26.6428 109.142 26.806 109.625 26.806C110.229 26.806 110.809 26.6247 111.365 26.2621V30.5411V30.5411ZM100.165 9.65364L90.7406 34.5663C90.0399 36.4278 89.1216 37.7695 87.9859 38.5915C86.8502 39.4134 85.497 39.8244 83.9263 39.8244C83.6847 39.8244 83.4188 39.8063 83.1289 39.77C82.8389 39.7337 82.561 39.6794 82.2952 39.6068L80.5554 34.7476C80.9662 34.941 81.389 35.0921 81.824 35.2009C82.259 35.3097 82.6697 35.3641 83.0564 35.3641C83.878 35.3641 84.6271 35.1767 85.3037 34.802C85.9802 34.4273 86.4998 33.7322 86.8623 32.7169L87.5872 30.6136L79.5042 9.65364H85.195L90.0157 23.1434L94.5465 9.65364H100.165ZM78.2355 6.49877H64.6068V13.2437H78.0543V17.8128H64.6068V30.6499H59.0974V1.67578H78.2355V6.49877Z" fill="white"/>
</svg>
