<svg width="177" height="48" viewBox="0 0 177 48" fill="none" xmlns="http://www.w3.org/2000/svg">
<rect x="0.12616" width="48.1477" height="48" rx="10" fill="#0C122C"/>
<path fill-rule="evenodd" clip-rule="evenodd" d="M16.6123 12H26.2344L33.4509 19.1944V33.5831C33.4509 34.9081 32.3744 35.9813 31.0453 35.9813H16.6003C15.2713 35.9813 14.2068 34.9081 14.2068 33.5831L14.2189 14.3981C14.2189 13.0731 15.2833 12 16.6123 12ZM25.0316 13.7986V20.3934H31.6467L25.0316 13.7986Z" fill="#697ED4"/>
<rect x="64.3231" width="48.1477" height="48" rx="10" fill="#0C122C"/>
<path d="M98.0264 16.4H88.3969L85.9895 14H78.7673C77.4373 14 76.372 15.074 76.372 16.4L76.36 30.8C76.36 32.126 77.4373 33.2 78.7674 33.2H98.0264C99.3565 33.2 100.434 32.126 100.434 30.8V18.8C100.434 17.4741 99.3565 16.4 98.0264 16.4Z" fill="#697ED4"/>
<rect x="128.52" width="48.1477" height="48" rx="10" fill="#0C122C"/>
<path fill-rule="evenodd" clip-rule="evenodd" d="M152.594 16C156.305 16 159.314 18.6 160.017 22C162.524 22.2 164.631 24.4 164.631 27C164.631 29.8 162.424 32 159.615 32H146.575C143.265 32 140.557 29.3 140.557 26C140.557 22.9 142.864 20.4 145.974 20C147.177 17.6 149.685 16 152.594 16ZM154.6 29V25H157.609L152.594 20L147.578 25H150.588V29H154.6Z" fill="#697ED4"/>
</svg>
